<svg xmlns="http://www.w3.org/2000/svg"  viewBox="0 0 50 50" width="50px" height="50px"><path d="M 14 5 C 9.037 5 5 9.038 5 14 L 5 36 C 5 40.963 9.037 45 14 45 L 36 45 C 40.963 45 45 40.963 45 36 L 45 14 C 45 9.038 40.963 5 36 5 L 14 5 z M 14 14 L 36 14 L 36 36 L 14 36 L 14 14 z M 16 16 L 16 34 L 34 34 L 34 16 L 16 16 z M 20 18.011719 L 22 18.011719 L 22 20 C 22 21.654 23.346 23 25 23 C 26.654 23 28 21.654 28 20 L 28 18.042969 L 30 18.042969 L 30 20 C 30 22.757 27.757 25 25 25 C 22.243 25 20 22.757 20 20 L 20 18.011719 z M 29.898438 28.001953 L 30.550781 29.322266 L 32.005859 29.533203 L 30.951172 30.560547 L 31.203125 32.011719 L 29.900391 31.326172 L 28.597656 32.011719 L 28.845703 30.560547 L 27.792969 29.533203 L 29.248047 29.322266 L 29.898438 28.001953 z"/></svg>